<?xml version="1.0" encoding="UTF-8"?>
<!DOCTYPE svg PUBLIC "-//W3C//DTD SVG 1.1//EN" "http://www.w3.org/Graphics/SVG/1.1/DTD/svg11.dtd">
<svg xmlns="http://www.w3.org/2000/svg" version="1.1" width="512px" height="512px" style="shape-rendering:geometricPrecision; text-rendering:geometricPrecision; image-rendering:optimizeQuality; fill-rule:evenodd; clip-rule:evenodd" xmlns:xlink="http://www.w3.org/1999/xlink">
<g><path style="opacity:0.986" fill="#000000" d="M 367.5,-0.5 C 368.167,-0.5 368.833,-0.5 369.5,-0.5C 386.785,21.9579 404.285,44.2913 422,66.5C 435.484,83.1269 446.151,101.46 454,121.5C 463.19,164.616 449.356,198.116 412.5,222C 372.777,241.015 336.61,235.849 304,206.5C 278.105,176.914 272.772,143.914 288,107.5C 295.544,93.9634 303.878,80.9634 313,68.5C 331.381,45.6249 349.548,22.6249 367.5,-0.5 Z"/></g>
<g><path style="opacity:0.992" fill="#000000" d="M 244.5,511.5 C 232.167,511.5 219.833,511.5 207.5,511.5C 139.502,501.33 92.0025,464.664 65,401.5C 49.0749,359.205 49.7415,317.205 67,275.5C 79.6214,249.579 94.6214,225.246 112,202.5C 150.178,154.128 188.344,105.794 226.5,57.5C 237.143,71.3106 247.976,84.9772 259,98.5C 240.838,150.685 251.672,195.851 291.5,234C 317.238,254.858 346.572,264.358 379.5,262.5C 407.051,319.084 405.218,374.75 374,429.5C 343.527,476.665 300.36,503.998 244.5,511.5 Z"/></g>
</svg>
