<?xml version="1.0" encoding="UTF-8"?>
<!DOCTYPE svg PUBLIC "-//W3C//DTD SVG 1.1//EN" "http://www.w3.org/Graphics/SVG/1.1/DTD/svg11.dtd">
<svg xmlns="http://www.w3.org/2000/svg" version="1.1" width="512px" height="512px" style="shape-rendering:geometricPrecision; text-rendering:geometricPrecision; image-rendering:optimizeQuality; fill-rule:evenodd; clip-rule:evenodd" xmlns:xlink="http://www.w3.org/1999/xlink">
<g><path style="opacity:0.937" fill="#000000" d="M 76.5,-0.5 C 90.8333,-0.5 105.167,-0.5 119.5,-0.5C 150.519,3.72215 180.519,12.0555 209.5,24.5C 214.917,21.3958 220.417,21.0625 226,23.5C 228.99,14.8456 234.49,8.34562 242.5,4C 249.516,0.825725 256.516,0.825725 263.5,4C 271.819,7.82491 279.819,12.1582 287.5,17C 296.471,29.0238 296.804,41.3572 288.5,54C 293.626,57.4754 296.792,62.3087 298,68.5C 326.88,85.362 352.88,106.029 376,130.5C 396.458,153.418 409.458,180.085 415,210.5C 416.78,220.511 416.78,230.511 415,240.5C 408.969,251.754 400.136,254.587 388.5,249C 352.552,206.385 309.886,172.385 260.5,147C 256.916,147.569 253.25,148.069 249.5,148.5C 247.291,148.396 245.124,148.063 243,147.5C 197.836,235.828 153.169,324.495 109,413.5C 94.9722,431.069 78.1388,434.236 58.5,423C 46.7431,413.063 42.5764,400.563 46,385.5C 90.3486,295.969 134.849,206.469 179.5,117C 177.833,114.735 176,112.569 174,110.5C 172.452,107.794 171.286,104.96 170.5,102C 120.4,77.2244 67.4003,63.2244 11.5,60C 6.0678,58.0637 2.0678,54.5637 -0.5,49.5C -0.5,45.1667 -0.5,40.8333 -0.5,36.5C 8.5328,25.953 19.5328,17.7863 32.5,12C 46.6828,5.65518 61.3494,1.48851 76.5,-0.5 Z M 80.5,17.5 C 121.734,15.6804 161.068,23.3471 198.5,40.5C 191.255,55.3229 183.755,69.9896 176,84.5C 126.578,60.4351 74.4117,46.2685 19.5,42C 37.5288,28.0471 57.8621,19.8804 80.5,17.5 Z M 249.5,20.5 C 258.497,21.8198 266.83,25.1531 274.5,30.5C 275.896,31.8524 276.563,33.5191 276.5,35.5C 275.565,39.3736 274.065,43.0403 272,46.5C 262.911,41.7056 253.745,37.0389 244.5,32.5C 244.422,27.9627 246.089,23.9627 249.5,20.5 Z M 218.5,40.5 C 238.942,49.8874 258.942,60.0541 278.5,71C 268.802,90.895 258.969,110.728 249,130.5C 228.896,120.533 209.063,110.199 189.5,99.5C 199.45,79.9344 209.116,60.2677 218.5,40.5 Z M 291.5,86.5 C 324.401,104.893 352.235,129.226 375,159.5C 389.348,179.874 397.181,202.54 398.5,227.5C 398.281,228.938 397.781,230.271 397,231.5C 360.934,189.57 318.434,155.903 269.5,130.5C 276.847,115.807 284.18,101.14 291.5,86.5 Z M 196.5,124.5 C 206.297,129.232 215.964,134.232 225.5,139.5C 181.139,229.055 136.139,318.222 90.5,407C 76.2943,414.567 66.961,410.567 62.5,395C 63.3298,392.198 64.1632,389.365 65,386.5C 109.195,299.108 153.029,211.775 196.5,124.5 Z"/></g>
<g><path style="opacity:0.942" fill="#000000" d="M 511.5,88.5 C 511.5,225.833 511.5,363.167 511.5,500.5C 508.833,505.167 505.167,508.833 500.5,511.5C 363.167,511.5 225.833,511.5 88.5,511.5C 85.9687,509.269 84.6354,506.436 84.5,503C 93.9661,465.205 117.966,442.872 156.5,436C 164.851,435.101 173.184,434.101 181.5,433C 195.381,410.393 215.381,401.393 241.5,406C 262.85,364.02 297.183,342.353 344.5,341C 354.685,347.593 365.685,352.259 377.5,355C 393.639,357.346 405.806,351.513 414,337.5C 415.667,333.833 417.333,330.167 419,326.5C 436.145,317.211 443.478,302.877 441,283.5C 438.826,276.979 436.66,270.479 434.5,264C 449.414,223.887 446.581,185.054 426,147.5C 426.406,138.546 430.572,131.712 438.5,127C 445.679,122.94 453.345,120.274 461.5,119C 468.234,107.18 477.234,97.5129 488.5,90C 493.931,86.0756 499.931,84.4089 506.5,85C 508.323,85.9973 509.99,87.1639 511.5,88.5 Z M 492.5,109.5 C 493.5,237.332 493.833,365.332 493.5,493.5C 364.498,493.833 235.498,493.5 106.5,492.5C 118.519,469.473 137.519,456.307 163.5,453C 171.163,451.632 178.829,451.465 186.5,452.5C 188.577,452.308 190.577,451.808 192.5,451C 195.446,446.281 198.279,441.448 201,436.5C 214.009,422.774 229.342,419.44 247,426.5C 248.967,426.458 250.801,425.958 252.5,425C 258.383,411.795 265.883,399.629 275,388.5C 291.961,371.437 312.461,361.437 336.5,358.5C 345.883,363.188 355.55,367.355 365.5,371C 397.468,379.097 420.301,368.264 434,338.5C 454.03,324.761 462.364,305.761 459,281.5C 457.568,275.206 455.735,269.039 453.5,263C 463.554,231.333 464.054,199.5 455,167.5C 452.514,159.697 449.347,152.197 445.5,145C 454.245,139.085 463.911,135.751 474.5,135C 477.331,129.851 480.164,124.685 483,119.5C 485.696,115.639 488.863,112.306 492.5,109.5 Z M 412.5,424.5 C 417.664,426.11 422.664,428.11 427.5,430.5C 425.554,435.004 424.22,439.671 423.5,444.5C 418.052,443.24 412.719,441.573 407.5,439.5C 409.372,434.55 411.039,429.55 412.5,424.5 Z M 306.5,439.5 C 308.771,444.129 310.771,448.962 312.5,454C 307.986,456.118 303.319,457.951 298.5,459.5C 295.942,455.186 293.942,450.519 292.5,445.5C 297.029,443.2 301.696,441.2 306.5,439.5 Z"/></g>
<g><path style="opacity:0.935" fill="#000000" d="M 311.5,255.5 C 316.844,255.334 322.177,255.501 327.5,256C 331.51,257.343 335.01,259.509 338,262.5C 344.385,272.266 348.218,282.932 349.5,294.5C 348.534,309.642 340.534,318.809 325.5,322C 297.54,328.709 282.54,317.709 280.5,289C 281.623,276.541 287.623,267.208 298.5,261C 302.904,259.041 307.238,257.208 311.5,255.5 Z M 314.5,273.5 C 317.572,273.183 320.572,273.516 323.5,274.5C 327.133,280.601 329.8,287.101 331.5,294C 331.6,297.804 329.934,300.471 326.5,302C 321.715,304.206 316.715,305.706 311.5,306.5C 303.26,304.229 298.926,298.729 298.5,290C 298.615,287.268 299.448,284.768 301,282.5C 305.169,278.844 309.669,275.844 314.5,273.5 Z"/></g>
<g><path style="opacity:0.904" fill="#000000" d="M 457.5,357.5 C 460.32,357.248 462.986,357.748 465.5,359C 469.333,362.833 473.167,366.667 477,370.5C 478.833,380.667 474.667,384.833 464.5,383C 459.667,379.5 455.5,375.333 452,370.5C 450.104,364.434 451.938,360.101 457.5,357.5 Z"/></g>
<g><path style="opacity:0.899" fill="#000000" d="M 354.5,391.5 C 359.509,390.771 363.342,392.437 366,396.5C 366.667,402.167 366.667,407.833 366,413.5C 361.902,418.758 357.069,419.591 351.5,416C 348.16,409.417 347.66,402.583 350,395.5C 351.397,393.93 352.897,392.596 354.5,391.5 Z"/></g>
<g><path style="opacity:0.937" fill="#000000" d="M 407.5,406.5 C 420.037,407.069 431.537,410.735 442,417.5C 445.266,422.738 446.266,428.405 445,434.5C 443.202,440.895 441.202,447.228 439,453.5C 434.053,461.717 426.886,464.55 417.5,462C 411.105,460.202 404.772,458.202 398.5,456C 391.133,451.093 388.299,444.26 390,435.5C 391.798,429.105 393.798,422.772 396,416.5C 398.818,411.839 402.651,408.505 407.5,406.5 Z M 412.5,424.5 C 411.039,429.55 409.372,434.55 407.5,439.5C 412.719,441.573 418.052,443.24 423.5,444.5C 424.22,439.671 425.554,435.004 427.5,430.5C 422.664,428.11 417.664,426.11 412.5,424.5 Z"/></g>
<g><path style="opacity:0.935" fill="#000000" d="M 302.5,421.5 C 309.445,420.471 315.612,422.137 321,426.5C 327.073,437.048 330.073,448.382 330,460.5C 328.167,466.333 324.333,470.167 318.5,472C 313.106,473.465 307.772,475.131 302.5,477C 293.212,479.242 286.045,476.409 281,468.5C 278.798,462.228 276.798,455.895 275,449.5C 273.105,441.864 274.939,435.364 280.5,430C 287.882,427.044 295.215,424.21 302.5,421.5 Z M 306.5,439.5 C 301.696,441.2 297.029,443.2 292.5,445.5C 293.942,450.519 295.942,455.186 298.5,459.5C 303.319,457.951 307.986,456.118 312.5,454C 310.771,448.962 308.771,444.129 306.5,439.5 Z"/></g>
<g><path style="opacity:0.898" fill="#000000" d="M 217.5,451.5 C 227.859,451.014 231.692,455.681 229,465.5C 225.5,469 222,472.5 218.5,476C 210.807,479.319 205.807,476.986 203.5,469C 206.5,461.834 211.166,456 217.5,451.5 Z"/></g>
</svg>
