<?xml version="1.0" encoding="UTF-8"?>
<!DOCTYPE svg PUBLIC "-//W3C//DTD SVG 1.1//EN" "http://www.w3.org/Graphics/SVG/1.1/DTD/svg11.dtd">
<svg xmlns="http://www.w3.org/2000/svg" version="1.1" width="512px" height="512px" style="shape-rendering:geometricPrecision; text-rendering:geometricPrecision; image-rendering:optimizeQuality; fill-rule:evenodd; clip-rule:evenodd" xmlns:xlink="http://www.w3.org/1999/xlink">
<g><path style="opacity:0.925" fill="#000000" d="M 177.5,14.5 C 213.377,13.8662 244.21,25.8662 270,50.5C 271.167,58.6667 267.667,62.1667 259.5,61C 239.439,43.0576 215.939,32.5576 189,29.5C 188.5,29.8333 188,30.1667 187.5,30.5C 207.289,57.2445 226.955,84.0779 246.5,111C 267.037,116.209 287.703,120.042 308.5,122.5C 300.744,109.316 292.244,96.6494 283,84.5C 282.5,77.6667 285.667,74.5 292.5,75C 294.96,76.4578 297.127,78.2911 299,80.5C 310.248,95.3195 320.248,110.986 329,127.5C 341.784,136.079 353.451,146.079 364,157.5C 355.347,108.31 372.847,71.8096 416.5,48C 431.852,39.6611 448.018,33.4945 465,29.5C 466.967,29.5419 468.801,30.0419 470.5,31C 520.954,120.507 497.954,182.007 401.5,215.5C 426.738,279.341 422.238,341.008 388,400.5C 343.147,467.177 280.314,498.677 199.5,495C 117.09,485.066 59.9238,441.899 28,365.5C 15.0165,330.653 12.0165,294.986 19,258.5C 22.5294,254.963 26.3628,254.63 30.5,257.5C 32.0287,259.707 32.6953,262.207 32.5,265C 23.6884,343.657 51.355,405.657 115.5,451C 173.414,485.776 233.414,489.776 295.5,463C 355.175,432.849 390.342,384.683 401,318.5C 408.011,245.793 382.677,187.46 325,143.5C 319.287,148.937 313.12,153.77 306.5,158C 366.227,201.811 389.06,260.311 375,333.5C 359.757,389.076 325.257,427.243 271.5,448C 246.359,456.943 220.692,459.276 194.5,455C 192.496,452.159 191.996,448.993 193,445.5C 193.5,443.667 194.667,442.5 196.5,442C 259.096,446.448 307.929,422.948 343,371.5C 362.938,337.767 368.771,301.767 360.5,263.5C 349.506,269.25 339.673,276.583 331,285.5C 326.524,291.762 324.357,298.762 324.5,306.5C 325.005,313.87 325.838,321.203 327,328.5C 329.181,342.109 326.181,354.443 318,365.5C 308.281,379.776 295.114,389.276 278.5,394C 261.672,395.19 251.839,387.356 249,370.5C 247.98,363.201 247.313,355.868 247,348.5C 246.667,332.167 246.333,315.833 246,299.5C 245.625,295.332 244.625,291.332 243,287.5C 242.261,286.426 241.261,285.759 240,285.5C 224.345,289.02 208.512,290.52 192.5,290C 172.508,287.009 160.674,275.509 157,255.5C 154.7,232.601 162.867,214.435 181.5,201C 160.782,198.305 141.782,191.138 124.5,179.5C 104.775,194.628 90.108,213.628 80.5,236.5C 88.4187,249.335 96.0854,262.335 103.5,275.5C 104.5,276.333 105.5,277.167 106.5,278C 113.242,280.136 119.909,282.469 126.5,285C 137.069,291.365 140.569,300.531 137,312.5C 130.412,327.174 124.245,342.007 118.5,357C 123.307,366.414 127.14,376.248 130,386.5C 131.67,396.03 131.836,405.53 130.5,415C 141.052,421.777 152.052,427.777 163.5,433C 167.321,439.854 165.488,444.354 158,446.5C 100.013,422.5 65.6792,379.5 55,317.5C 48.2783,258.304 67.1117,209.137 111.5,170C 83.994,145.809 62.1607,117.309 46,84.5C 45.3333,82.8333 45.3333,81.1667 46,79.5C 48.7684,75.727 51.9351,72.227 55.5,69C 82.4315,46.6954 112.765,30.3621 146.5,20C 156.864,17.4965 167.197,15.6631 177.5,14.5 Z M 162.5,31.5 C 165.685,31.0196 168.519,31.6863 171,33.5C 188.833,58 206.667,82.5 224.5,107C 206.592,104.152 188.758,100.652 171,96.5C 157.833,78.1667 144.667,59.8333 131.5,41.5C 141.668,37.332 152.001,33.9987 162.5,31.5 Z M 114.5,48.5 C 115.822,48.33 116.989,48.6634 118,49.5C 127.973,63.64 138.14,77.64 148.5,91.5C 122.482,87.6655 96.4825,82.8321 70.5,77C 84.3801,66.2303 99.0467,56.7303 114.5,48.5 Z M 448.5,49.5 C 449.675,49.281 450.675,49.6143 451.5,50.5C 441.276,75.2824 430.776,99.9491 420,124.5C 414,109.833 408,95.1667 402,80.5C 401.333,79.5 401.333,78.5 402,77.5C 416.052,65.7255 431.552,56.3922 448.5,49.5 Z M 465.5,54.5 C 474.671,71.6818 479.338,90.0152 479.5,109.5C 464.908,115.857 450.241,121.69 435.5,127C 445.993,103.016 455.993,78.8498 465.5,54.5 Z M 388.5,91.5 C 389.75,91.5774 390.583,92.244 391,93.5C 397.836,110.505 404.67,127.505 411.5,144.5C 405.49,160.363 398.99,176.03 392,191.5C 378.792,165.807 374.792,138.807 380,110.5C 382.313,103.878 385.147,97.5448 388.5,91.5 Z M 68.5,92.5 C 94.5584,97.345 120.558,102.512 146.5,108C 131.973,118.694 117.306,129.194 102.5,139.5C 88.956,125.404 77.6227,109.737 68.5,92.5 Z M 166.5,111.5 C 185.527,115.139 204.527,118.972 223.5,123C 199,140.833 174.5,158.667 150,176.5C 136.451,169.947 124.285,161.447 113.5,151C 131.35,137.97 149.017,124.803 166.5,111.5 Z M 243.5,126.5 C 264.495,130.599 285.495,134.766 306.5,139C 282.061,158.556 254.727,172.889 224.5,182C 205.569,187.355 186.569,187.688 167.5,183C 193.017,164.303 218.35,145.47 243.5,126.5 Z M 477.5,126.5 C 478.649,126.791 479.316,127.624 479.5,129C 475.583,146.497 466.583,160.83 452.5,172C 439.222,182.477 424.555,190.644 408.5,196.5C 407.417,195.635 407.251,194.635 408,193.5C 414.333,178.5 420.667,163.5 427,148.5C 443.876,141.049 460.709,133.716 477.5,126.5 Z M 291.5,167.5 C 322.503,186.324 344.169,212.824 356.5,247C 349.094,252.216 341.427,257.216 333.5,262C 314.635,274.91 306.802,292.744 310,315.5C 310.974,322.485 311.807,329.485 312.5,336.5C 308.326,358.511 295.492,372.845 274,379.5C 267.828,377.986 264.495,373.986 264,367.5C 261.895,352.712 261.395,337.879 262.5,323C 261.842,314.177 261.342,305.343 261,296.5C 260.449,289.178 258.115,282.511 254,276.5C 250.304,272.736 245.804,270.736 240.5,270.5C 227.396,272.682 214.229,274.348 201,275.5C 182.121,275.122 172.288,265.455 171.5,246.5C 172.918,233.167 178.918,222.334 189.5,214C 195.5,209.667 201.5,205.333 207.5,201C 238.188,196.142 266.188,184.975 291.5,167.5 Z M 73.5,254.5 C 78.5591,262.943 83.3925,271.61 88,280.5C 90.4626,283.965 93.2959,287.131 96.5,290C 104.913,293.138 113.246,296.471 121.5,300C 122.43,301.194 123.097,302.527 123.5,304C 118.964,317.24 113.464,330.073 107,342.5C 103.443,350.296 102.776,358.296 105,366.5C 112.509,377.358 116.176,389.358 116,402.5C 74.6146,361.158 60.448,311.825 73.5,254.5 Z"/></g>
</svg>
