<?xml version="1.0" encoding="UTF-8"?>
<!DOCTYPE svg PUBLIC "-//W3C//DTD SVG 1.1//EN" "http://www.w3.org/Graphics/SVG/1.1/DTD/svg11.dtd">
<svg xmlns="http://www.w3.org/2000/svg" version="1.1" width="512px" height="512px" style="shape-rendering:geometricPrecision; text-rendering:geometricPrecision; image-rendering:optimizeQuality; fill-rule:evenodd; clip-rule:evenodd" xmlns:xlink="http://www.w3.org/1999/xlink">
<g><path style="opacity:0.978" fill="#000000" d="M 233.5,15.5 C 332.167,10.9138 408.334,49.5805 462,131.5C 501.334,201.864 506.334,274.531 477,349.5C 469.741,366.528 460.574,382.362 449.5,397C 459,406.5 468.5,416 478,425.5C 481.288,429.776 481.122,433.943 477.5,438C 444.919,439.652 412.252,439.985 379.5,439C 377.667,438.5 376.5,437.333 376,435.5C 375.333,403.5 375.333,371.5 376,339.5C 376.5,337.667 377.667,336.5 379.5,336C 382.964,335.183 386.298,335.517 389.5,337C 397.667,345.167 405.833,353.333 414,361.5C 439.512,323.79 450.178,282.124 446,236.5C 435.698,161.687 396.198,108.854 327.5,78C 285.838,62.3154 243.504,60.3154 200.5,72C 192.281,74.4442 184.281,77.4442 176.5,81C 172.579,81.9587 169.412,80.792 167,77.5C 162,67.5 157,57.5 152,47.5C 151.21,44.366 151.543,41.366 153,38.5C 164.571,32.3066 176.738,27.4733 189.5,24C 204.121,20.178 218.787,17.3447 233.5,15.5 Z"/></g>
<g><path style="opacity:0.975" fill="#000000" d="M 35.5,71.5 C 67.5017,71.3334 99.5017,71.5 131.5,72C 134.383,73.5885 135.883,76.0885 136,79.5C 136.969,110.215 136.636,140.881 135,171.5C 134.5,173.333 133.333,174.5 131.5,175C 128.036,175.817 124.702,175.483 121.5,174C 113.319,165.652 104.986,157.486 96.5,149.5C 65.0859,197.987 56.5859,250.32 71,306.5C 94.0021,379.169 142.502,424.669 216.5,443C 257.223,450.993 296.556,446.659 334.5,430C 338.421,429.041 341.588,430.208 344,433.5C 348.922,442.343 353.588,451.343 358,460.5C 360.394,465.395 359.894,469.895 356.5,474C 306.617,496.246 254.95,501.579 201.5,490C 106.667,464.5 46.5,404.333 21,309.5C 7.33472,245.159 17.3347,184.825 51,128.5C 54.3776,123.578 57.8776,118.745 61.5,114C 52,104.5 42.5,95 33,85.5C 29.7519,80.0842 30.5853,75.4175 35.5,71.5 Z"/></g>
<g><path style="opacity:0.98" fill="#000000" d="M 267.5,119.5 C 277.619,118.037 281.619,122.37 279.5,132.5C 277.319,162.853 274.986,193.186 272.5,223.5C 294.836,223.333 317.169,223.5 339.5,224C 344.255,227.842 345.089,232.342 342,237.5C 311.333,286.167 280.667,334.833 250,383.5C 246.488,391.566 240.822,393.566 233,389.5C 231.911,385.952 231.411,382.285 231.5,378.5C 233.579,348.136 235.913,317.803 238.5,287.5C 216.164,287.667 193.831,287.5 171.5,287C 169.667,286.5 168.5,285.333 168,283.5C 167.333,280.833 167.333,278.167 168,275.5C 200.669,223.036 233.836,171.036 267.5,119.5 Z"/></g>
</svg>
