<?xml version="1.0" encoding="UTF-8"?>
<!DOCTYPE svg PUBLIC "-//W3C//DTD SVG 1.1//EN" "http://www.w3.org/Graphics/SVG/1.1/DTD/svg11.dtd">
<svg xmlns="http://www.w3.org/2000/svg" version="1.1" width="512px" height="512px" style="shape-rendering:geometricPrecision; text-rendering:geometricPrecision; image-rendering:optimizeQuality; fill-rule:evenodd; clip-rule:evenodd" xmlns:xlink="http://www.w3.org/1999/xlink">
<g><path style="opacity:0.986" fill="#000000" d="M 274.5,-0.5 C 341.833,-0.5 409.167,-0.5 476.5,-0.5C 494.5,4.83333 506.167,16.5 511.5,34.5C 511.5,81.5 511.5,128.5 511.5,175.5C 506.953,191.885 496.62,203.052 480.5,209C 447.881,210.305 415.214,210.971 382.5,211C 363.833,229.667 345.167,248.333 326.5,267C 319.167,271.667 311.833,271.667 304.5,267C 303.333,265.167 302.167,263.333 301,261.5C 300.5,244.503 300.333,227.503 300.5,210.5C 280.33,214.274 263.163,208.94 249,194.5C 244.662,188.824 241.662,182.49 240,175.5C 239.333,128.5 239.333,81.5 240,34.5C 245.016,16.3183 256.516,4.65165 274.5,-0.5 Z M 284.5,29.5 C 345.168,29.3333 405.834,29.5 466.5,30C 475.333,30.8333 480.167,35.6667 481,44.5C 481.667,84.8333 481.667,125.167 481,165.5C 480.167,174.333 475.333,179.167 466.5,180C 434.167,180.333 401.833,180.667 369.5,181C 356.062,192.436 343.229,204.602 331,217.5C 330.667,208.167 330.333,198.833 330,189.5C 328.5,185.333 325.667,182.5 321.5,181C 309.167,180.667 296.833,180.333 284.5,180C 275.667,179.167 270.833,174.333 270,165.5C 269.333,125.167 269.333,84.8333 270,44.5C 271.012,35.6566 275.845,30.6566 284.5,29.5 Z"/></g>
<g><path style="opacity:0.942" fill="#000000" d="M 399.5,75.5 C 415.654,73.4866 422.487,80.4866 420,96.5C 403.865,114.968 386.699,132.468 368.5,149C 363.167,151 357.833,151 352.5,149C 343.363,140.864 334.53,132.364 326,123.5C 320.93,115.58 321.43,108.08 327.5,101C 334.47,96.4099 341.47,96.4099 348.5,101C 352.348,105.016 356.348,108.849 360.5,112.5C 373.244,99.7519 386.244,87.4186 399.5,75.5 Z"/></g>
<g><path style="opacity:0.979" fill="#000000" d="M 230.5,511.5 C 166.5,511.5 102.5,511.5 38.5,511.5C 34.5212,509.685 31.6878,506.685 30,502.5C 29.8331,480.492 29.3331,458.492 28.5,436.5C 12.9441,423.968 3.27744,407.968 -0.5,388.5C -0.5,359.833 -0.5,331.167 -0.5,302.5C 5.82929,274.325 22.496,254.825 49.5,244C 53.7974,242.842 58.1307,241.842 62.5,241C 82.5,240.667 102.5,240.333 122.5,240C 95.6147,235.141 76.4481,220.307 65,195.5C 51.7468,156.654 61.5801,125.154 94.5,101C 120.325,87.3963 146.325,87.063 172.5,100C 207.062,123.707 217.562,155.54 204,195.5C 192.552,220.307 173.385,235.141 146.5,240C 166.5,240.333 186.5,240.667 206.5,241C 238.968,247.967 259.634,267.467 268.5,299.5C 275.811,300.331 283.144,300.831 290.5,301C 298.915,305.348 301.748,312.181 299,321.5C 293.531,337.407 288.364,353.407 283.5,369.5C 287.159,374 290.659,378.667 294,383.5C 304.298,405.573 300.798,425.073 283.5,442C 275.227,448.258 265.893,451.425 255.5,451.5C 250.086,470.578 243.586,489.245 236,507.5C 233.985,508.697 232.151,510.03 230.5,511.5 Z M 125.5,121.5 C 152.542,119.067 170.042,130.733 178,156.5C 180.92,183.564 169.42,201.064 143.5,209C 116.436,211.92 98.9359,200.42 91,174.5C 88.2868,147.411 99.7868,129.744 125.5,121.5 Z M 74.5,270.5 C 117.525,270.05 160.525,270.55 203.5,272C 219.078,275.91 230.078,285.243 236.5,300C 210.5,300.333 184.5,300.667 158.5,301C 154.333,302.5 151.5,305.333 150,309.5C 144.359,326.758 138.525,343.924 132.5,361C 118.171,361.5 103.837,361.667 89.5,361.5C 89.6666,344.163 89.4999,326.83 89,309.5C 84.6524,301.085 77.8191,298.252 68.5,301C 64.3333,302.5 61.5,305.333 60,309.5C 59.3333,333.833 59.3333,358.167 60,382.5C 61.5,386.667 64.3333,389.5 68.5,391C 86.4969,391.5 104.497,391.667 122.5,391.5C 119.5,401.5 116.5,411.5 113.5,421.5C 100.496,421.667 87.4957,421.5 74.5,421C 47.6667,418.167 32.8333,403.333 30,376.5C 29.3333,356.167 29.3333,335.833 30,315.5C 33.0109,288.656 47.8443,273.656 74.5,270.5 Z M 175.5,330.5 C 204.835,330.333 234.169,330.5 263.5,331C 259.666,341.002 256.333,351.169 253.5,361.5C 241.829,361.333 230.162,361.5 218.5,362C 214.333,363.5 211.5,366.333 210,370.5C 209.333,394.5 209.333,418.5 210,442.5C 212.496,447.83 216.663,450.83 222.5,451.5C 219.5,461.5 216.5,471.5 213.5,481.5C 184.5,481.5 155.5,481.5 126.5,481.5C 142.632,431.105 158.965,380.771 175.5,330.5 Z M 239.5,391.5 C 247.022,390.989 254.355,391.822 261.5,394C 268.491,398.933 270.325,405.433 267,413.5C 264.113,418.039 259.947,420.539 254.5,421C 249.511,421.499 244.511,421.666 239.5,421.5C 239.5,411.5 239.5,401.5 239.5,391.5 Z M 59.5,450.5 C 73.7973,451.449 88.1307,451.782 102.5,451.5C 99.5,461.5 96.5,471.5 93.5,481.5C 82.1667,481.5 70.8333,481.5 59.5,481.5C 59.5,471.167 59.5,460.833 59.5,450.5 Z"/></g>
</svg>
