<?xml version="1.0" encoding="UTF-8"?>
<!DOCTYPE svg PUBLIC "-//W3C//DTD SVG 1.1//EN" "http://www.w3.org/Graphics/SVG/1.1/DTD/svg11.dtd">
<svg xmlns="http://www.w3.org/2000/svg" version="1.1" width="512px" height="512px" style="shape-rendering:geometricPrecision; text-rendering:geometricPrecision; image-rendering:optimizeQuality; fill-rule:evenodd; clip-rule:evenodd" xmlns:xlink="http://www.w3.org/1999/xlink">
<g><path style="opacity:0.944" fill="#000000" d="M 185.5,7.5 C 276.167,7.33334 366.834,7.5 457.5,8C 476.973,12.8067 489.14,24.9733 494,44.5C 494.667,94.1667 494.667,143.833 494,193.5C 488.523,214.642 475.023,227.142 453.5,231C 365.5,231.667 277.5,231.667 189.5,231C 160.768,224.433 146.768,206.266 147.5,176.5C 141.5,179.5 135.5,182.5 129.5,185.5C 128.667,214.828 128.167,244.161 128,273.5C 126.167,280.667 121.667,285.167 114.5,287C 86.1667,287.667 57.8333,287.667 29.5,287C 23.3333,284.833 19.1667,280.667 17,274.5C 16.8333,251.833 16.6667,229.167 16.5,206.5C 16.3578,182.127 16.8578,157.794 18,133.5C 22.279,119.103 30.779,107.937 43.5,100C 23.7979,82.29 19.6313,61.4567 31,37.5C 47.2473,14.7535 68.4139,8.58683 94.5,19C 114.594,31.2532 122.761,49.0865 119,72.5C 116.187,83.9703 110.02,93.137 100.5,100C 111.622,105.947 119.288,114.78 123.5,126.5C 132.11,123.445 140.277,119.445 148,114.5C 148.333,91.8333 148.667,69.1667 149,46.5C 153.129,25.8739 165.296,12.8739 185.5,7.5 Z M 195.5,23.5 C 279.834,23.3333 364.167,23.5 448.5,24C 463.14,25.643 472.64,33.4763 477,47.5C 477.981,96.5455 477.648,145.545 476,194.5C 471.347,205.41 463.18,211.91 451.5,214C 363.131,214.987 274.798,214.654 186.5,213C 175.497,209.329 168.663,201.829 166,190.5C 165.168,182.479 165.335,174.479 166.5,166.5C 176.095,162.793 184.595,157.459 192,150.5C 193.861,148.112 195.194,145.446 196,142.5C 196.333,137.833 196.667,133.167 197,128.5C 214,108.833 231,89.1667 248,69.5C 250.865,63.4937 249.365,58.9937 243.5,56C 241.029,55.2937 238.695,55.627 236.5,57C 219.627,75.5371 203.127,94.3704 187,113.5C 180.747,108.362 173.581,106.362 165.5,107.5C 165.333,87.8305 165.5,68.1638 166,48.5C 170.24,33.4179 180.073,25.0845 195.5,23.5 Z M 70.5,30.5 C 89.5642,32.2305 100.564,42.5638 103.5,61.5C 99.1122,86.0262 84.7788,95.5262 60.5,90C 45.0936,82.0183 39.2602,69.5183 43,52.5C 47.9689,39.7826 57.1356,32.4493 70.5,30.5 Z M 65.5,109.5 C 85.7797,107.887 100.28,116.22 109,134.5C 110.761,140.4 112.095,146.4 113,152.5C 131.719,142.307 150.719,132.64 170,123.5C 177.34,125.84 180.34,130.84 179,138.5C 178.07,140.552 176.57,142.052 174.5,143C 146.676,157.078 119.01,171.411 91.5,186C 80.6459,186.475 76.1459,181.308 78,170.5C 73.6065,163.302 68.2732,162.635 62,168.5C 59.0611,192.896 69.8944,204.396 94.5,203C 99.9539,200.773 105.287,198.273 110.5,195.5C 111.827,220.399 111.827,245.232 110.5,270C 84.9277,270.828 59.4277,270.661 34,269.5C 33.3333,226.5 33.3333,183.5 34,140.5C 38.4223,123.911 48.9223,113.577 65.5,109.5 Z"/></g>
<g><path style="opacity:0.93" fill="#000000" d="M 268.5,45.5 C 295.502,45.3334 322.502,45.5 349.5,46C 353.277,48.9547 354.443,52.788 353,57.5C 351.363,59.8102 349.196,61.3102 346.5,62C 321.5,62.6667 296.5,62.6667 271.5,62C 263.78,59.5161 261.947,54.6828 266,47.5C 266.995,46.9341 267.828,46.2674 268.5,45.5 Z"/></g>
<g><path style="opacity:0.924" fill="#000000" d="M 377.5,45.5 C 390.837,45.3334 404.171,45.5001 417.5,46C 421.277,48.9547 422.443,52.788 421,57.5C 419.363,59.8102 417.196,61.3102 414.5,62C 403.167,62.6667 391.833,62.6667 380.5,62C 374.036,60.244 371.87,56.0773 374,49.5C 374.69,47.6498 375.856,46.3164 377.5,45.5 Z"/></g>
<g><path style="opacity:0.935" fill="#000000" d="M 265.5,88.5 C 315.168,88.3333 364.834,88.5 414.5,89C 420.095,91.354 421.928,95.5207 420,101.5C 418.833,102.667 417.667,103.833 416.5,105C 365.833,105.667 315.167,105.667 264.5,105C 259.931,102.459 258.431,98.6253 260,93.5C 261.406,91.2563 263.239,89.5897 265.5,88.5 Z"/></g>
<g><path style="opacity:0.929" fill="#000000" d="M 253.5,132.5 C 286.502,132.333 319.502,132.5 352.5,133C 360.5,138.333 360.5,143.667 352.5,149C 319.5,149.667 286.5,149.667 253.5,149C 248.391,145.634 247.224,141.134 250,135.5C 251.145,134.364 252.312,133.364 253.5,132.5 Z"/></g>
<g><path style="opacity:0.919" fill="#000000" d="M 380.5,132.5 C 392.171,132.333 403.838,132.5 415.5,133C 420.069,135.541 421.569,139.375 420,144.5C 419.167,146.667 417.667,148.167 415.5,149C 403.833,149.667 392.167,149.667 380.5,149C 372.565,143.504 372.565,138.004 380.5,132.5 Z"/></g>
<g><path style="opacity:0.915" fill="#000000" d="M 231.5,176.5 C 244.171,176.333 256.838,176.5 269.5,177C 273.861,179.226 275.361,182.726 274,187.5C 272.833,190 271,191.833 268.5,193C 256.5,193.667 244.5,193.667 232.5,193C 224.937,187.827 224.604,182.327 231.5,176.5 Z"/></g>
<g><path style="opacity:0.932" fill="#000000" d="M 297.5,176.5 C 337.501,176.333 377.501,176.5 417.5,177C 421.788,180.771 422.621,185.271 420,190.5C 418.581,191.46 417.081,192.293 415.5,193C 376.833,193.667 338.167,193.667 299.5,193C 290.965,188.484 290.298,182.984 297.5,176.5 Z"/></g>
<g><path style="opacity:0.95" fill="#000000" d="M 248.5,274.5 C 283.824,274.161 303.49,291.494 307.5,326.5C 306.536,342.427 300.202,355.761 288.5,366.5C 302.198,372.699 313.698,381.699 323,393.5C 329.115,388.86 335.615,384.86 342.5,381.5C 320.826,359.775 317.992,335.775 334,309.5C 349.492,291.782 368.658,285.949 391.5,292C 417.172,302.492 428.672,321.658 426,349.5C 423.686,362.47 417.519,373.136 407.5,381.5C 432.533,392.201 449.2,410.534 457.5,436.5C 485.053,434.884 497.386,447.717 494.5,475C 494.333,481.167 494.167,487.333 494,493.5C 492.895,498.206 490.062,501.373 485.5,503C 332.167,503.667 178.833,503.667 25.5,503C 20.9378,501.373 18.1045,498.206 17,493.5C 16.3333,481.167 16.3333,468.833 17,456.5C 19.3133,448.184 24.48,442.351 32.5,439C 39.4654,437.991 46.4654,437.158 53.5,436.5C 61.8001,410.534 78.4667,392.201 103.5,381.5C 85.2031,364.982 80.0365,344.982 88,321.5C 97.4176,301.114 113.418,290.448 136,289.5C 164.712,291.88 181.712,307.213 187,335.5C 188.321,353.856 182.154,369.19 168.5,381.5C 175.418,384.873 181.918,388.873 188,393.5C 197.302,381.699 208.802,372.699 222.5,366.5C 202.782,346.858 198.949,324.524 211,299.5C 220.133,286.024 232.633,277.69 248.5,274.5 Z M 250.5,291.5 C 273.551,291.716 286.884,303.216 290.5,326C 288.524,343.981 278.857,355.314 261.5,360C 243.094,361.885 230.261,354.385 223,337.5C 218.036,313.766 227.202,298.433 250.5,291.5 Z M 130.5,306.5 C 158.727,307.221 171.561,321.554 169,349.5C 162.676,368.421 149.51,376.921 129.5,375C 109.267,369.038 100.1,355.538 102,334.5C 106.089,319.578 115.589,310.244 130.5,306.5 Z M 369.5,306.5 C 390.135,305.394 403.302,314.727 409,334.5C 410.951,356.108 401.451,369.608 380.5,375C 365.97,376.483 354.47,371.317 346,359.5C 336.613,340.766 340.113,324.933 356.5,312C 360.741,309.651 365.075,307.818 369.5,306.5 Z M 248.5,377.5 C 273.892,376.341 294.559,385.508 310.5,405C 302.32,414.527 296.653,425.36 293.5,437.5C 268.167,437.5 242.833,437.5 217.5,437.5C 214.331,425.328 208.665,414.495 200.5,405C 213.007,389.644 229.007,380.478 248.5,377.5 Z M 128.5,392.5 C 161.972,391.686 185.639,406.353 199.5,436.5C 156.837,437.667 114.171,437.833 71.5,437C 82.6949,412.08 101.695,397.247 128.5,392.5 Z M 367.5,392.5 C 401.562,391.351 425.562,406.185 439.5,437C 396.829,437.833 354.163,437.667 311.5,436.5C 322.263,411.733 340.93,397.067 367.5,392.5 Z M 39.5,454.5 C 183.5,454.333 327.5,454.5 471.5,455C 474.057,455.685 475.891,457.185 477,459.5C 477.5,468.827 477.666,478.161 477.5,487.5C 329.5,487.5 181.5,487.5 33.5,487.5C 33.3335,478.161 33.5002,468.827 34,459.5C 35.3516,457.251 37.1849,455.584 39.5,454.5 Z"/></g>
</svg>
