<?xml version="1.0" encoding="UTF-8"?>
<!DOCTYPE svg PUBLIC "-//W3C//DTD SVG 1.1//EN" "http://www.w3.org/Graphics/SVG/1.1/DTD/svg11.dtd">
<svg xmlns="http://www.w3.org/2000/svg" version="1.1" width="512px" height="512px" style="shape-rendering:geometricPrecision; text-rendering:geometricPrecision; image-rendering:optimizeQuality; fill-rule:evenodd; clip-rule:evenodd" xmlns:xlink="http://www.w3.org/1999/xlink">
<g><path style="opacity:0.931" fill="#000000" d="M 239.5,7.5 C 297.858,3.75434 341.358,27.0877 370,77.5C 389.768,121.204 387.268,163.537 362.5,204.5C 378.915,213.789 395.082,223.456 411,233.5C 425.417,256.669 440.084,279.669 455,302.5C 457.329,307.363 456.829,311.863 453.5,316C 439.918,323.707 426.418,331.54 413,339.5C 412.667,363.833 412.333,388.167 412,412.5C 410.878,414.624 409.378,416.457 407.5,418C 360.167,445.333 312.833,472.667 265.5,500C 259.676,504.147 253.676,504.48 247.5,501C 199.33,472.747 150.997,444.747 102.5,417C 100.951,415.786 99.7845,414.286 99,412.5C 98.6667,388.167 98.3333,363.833 98,339.5C 84.5819,331.54 71.0819,323.707 57.5,316C 54.1709,311.863 53.6709,307.363 56,302.5C 70.9163,279.669 85.583,256.669 100,233.5C 115.918,223.456 132.085,213.789 148.5,204.5C 121.502,159.675 120.668,114.342 146,68.5C 168.067,34.2745 199.234,13.9412 239.5,7.5 Z M 254.5,23.5 C 301.878,25.9211 336.045,48.2544 357,90.5C 375.029,139.212 365.529,181.712 328.5,218C 289.519,248.899 247.519,253.566 202.5,232C 158.249,204.323 139.749,164.489 147,112.5C 162.192,57.8015 198.025,28.1348 254.5,23.5 Z M 158.5,218.5 C 200.425,261.722 249.758,272.888 306.5,252C 324.067,244.129 339.234,232.962 352,218.5C 363.297,224.968 374.464,231.634 385.5,238.5C 342.682,264.301 299.349,289.301 255.5,313.5C 212.537,289.016 169.537,264.516 126.5,240C 126.043,239.586 125.709,239.086 125.5,238.5C 136.54,231.771 147.54,225.105 158.5,218.5 Z M 109.5,250.5 C 154.275,275.723 198.941,301.223 243.5,327C 231.833,345.333 220.167,363.667 208.5,382C 164.109,357.545 119.942,332.378 76,306.5C 75.3333,305.5 75.3333,304.5 76,303.5C 87.1774,285.805 98.3441,268.139 109.5,250.5 Z M 399.5,250.5 C 400.496,250.414 401.329,250.748 402,251.5C 413,268.833 424,286.167 435,303.5C 435.667,304.5 435.667,305.5 435,306.5C 391.058,332.378 346.891,357.545 302.5,382C 290.833,363.667 279.167,345.333 267.5,327C 311.727,301.726 355.727,276.226 399.5,250.5 Z M 254.5,341.5 C 255.496,341.414 256.329,341.748 257,342.5C 269.25,361.331 281.25,380.331 293,399.5C 294.853,401.592 297.186,402.592 300,402.5C 304.083,401.711 307.916,400.211 311.5,398C 339.251,381.707 367.085,365.54 395,349.5C 395.667,367.833 395.667,386.167 395,404.5C 348.582,431.626 302.082,458.626 255.5,485.5C 208.918,458.626 162.418,431.626 116,404.5C 115.333,386.167 115.333,367.833 116,349.5C 146.255,367.379 176.755,384.879 207.5,402C 213.201,403.565 217.367,401.732 220,396.5C 231.511,378.139 243.011,359.805 254.5,341.5 Z"/></g>
<g><path style="opacity:0.906" fill="#000000" d="M 199.5,72.5 C 202.794,72.259 205.794,73.0924 208.5,75C 224.014,90.6807 239.681,106.181 255.5,121.5C 271.319,106.181 286.986,90.6807 302.5,75C 310.37,70.6023 315.37,72.769 317.5,81.5C 317.423,83.299 316.923,84.9656 316,86.5C 299.986,102.347 284.153,118.347 268.5,134.5C 283.819,150.319 299.319,165.986 315,181.5C 319.767,193.397 315.934,197.897 303.5,195C 287.653,178.986 271.653,163.153 255.5,147.5C 239.347,163.153 223.347,178.986 207.5,195C 195.066,197.897 191.233,193.397 196,181.5C 211.681,165.986 227.181,150.319 242.5,134.5C 226.847,118.347 211.014,102.347 195,86.5C 192.214,80.414 193.714,75.7473 199.5,72.5 Z"/></g>
</svg>
