<?xml version="1.0" encoding="UTF-8"?>
<!DOCTYPE svg PUBLIC "-//W3C//DTD SVG 1.1//EN" "http://www.w3.org/Graphics/SVG/1.1/DTD/svg11.dtd">
<svg xmlns="http://www.w3.org/2000/svg" version="1.1" width="512px" height="512px" style="shape-rendering:geometricPrecision; text-rendering:geometricPrecision; image-rendering:optimizeQuality; fill-rule:evenodd; clip-rule:evenodd" xmlns:xlink="http://www.w3.org/1999/xlink">
<g><path style="opacity:0.955" fill="#000000" d="M 267.5,-0.5 C 270.167,-0.5 272.833,-0.5 275.5,-0.5C 277.144,0.316435 278.31,1.64977 279,3.5C 279.5,15.4954 279.667,27.4954 279.5,39.5C 288.839,39.3335 298.173,39.5002 307.5,40C 309.333,40.5 310.5,41.6667 311,43.5C 311.667,46.1667 311.667,48.8333 311,51.5C 289.516,71.3135 267.682,90.8135 245.5,110C 242.298,111.483 238.964,111.817 235.5,111C 233.667,110.5 232.5,109.333 232,107.5C 231.5,95.5046 231.333,83.5046 231.5,71.5C 222.161,71.6665 212.827,71.4998 203.5,71C 201.667,70.5 200.5,69.3333 200,67.5C 199.333,64.8333 199.333,62.1667 200,59.5C 222.048,38.9495 244.548,18.9495 267.5,-0.5 Z M 262.5,26.5 C 263.056,35.424 263.889,44.424 265,53.5C 265.75,54.1258 266.584,54.6258 267.5,55C 271.833,55.3333 276.167,55.6667 280.5,56C 269.667,65.5 258.833,75 248,84.5C 247.945,75.3991 247.278,66.3991 246,57.5C 245.25,56.8742 244.416,56.3742 243.5,56C 239.167,55.6667 234.833,55.3333 230.5,55C 241.361,45.6346 252.028,36.1346 262.5,26.5 Z"/></g>
<g><path style="opacity:0.969" fill="#000000" d="M 511.5,83.5 C 511.5,184.167 511.5,284.833 511.5,385.5C 509.918,387.97 507.585,389.47 504.5,390C 498.675,390.149 493.008,391.149 487.5,393C 481.003,396.414 474.67,400.081 468.5,404C 444.206,413.673 421.539,410.84 400.5,395.5C 400.347,415.278 410.014,427.778 429.5,433C 433.603,437.943 433.269,442.609 428.5,447C 412.439,446.883 399.939,440.05 391,426.5C 387.545,420.925 385.212,414.925 384,408.5C 383.968,357.806 383.301,307.139 382,256.5C 375.058,236.608 361.225,229.108 340.5,234C 327.808,239.703 320.974,249.536 320,263.5C 319.667,311.5 319.333,359.5 319,407.5C 315.485,426.018 304.985,438.851 287.5,446C 283.259,447.457 278.926,447.791 274.5,447C 270.572,443.453 269.738,439.286 272,434.5C 279.335,431.582 286.169,427.748 292.5,423C 296.377,418.754 299.377,413.921 301.5,408.5C 296.509,406.338 291.509,404.172 286.5,402C 273.599,391.109 258.933,387.776 242.5,392C 231.77,398.032 220.77,403.532 209.5,408.5C 211.623,413.921 214.623,418.754 218.5,423C 224.831,427.748 231.665,431.582 239,434.5C 241.631,445.203 237.464,449.37 226.5,447C 207.508,440.343 196.008,427.176 192,407.5C 191.968,357.139 191.301,306.805 190,256.5C 184.207,238.178 171.707,230.345 152.5,233C 137.097,237.287 128.93,247.454 128,263.5C 127.667,311.833 127.333,360.167 127,408.5C 121.892,429.775 108.725,442.775 87.5,447.5C 82.0371,447.708 79.0371,445.041 78.5,439.5C 78.833,436.99 79.833,434.823 81.5,433C 100.986,427.778 110.653,415.278 110.5,395.5C 90.2635,410.437 68.2635,413.603 44.5,405C 37.6628,400.747 30.6628,396.747 23.5,393C 17.9917,391.149 12.325,390.149 6.5,390C 3.41501,389.47 1.08167,387.97 -0.5,385.5C -0.5,284.833 -0.5,184.167 -0.5,83.5C 0.316435,81.8564 1.64977,80.6897 3.5,80C 20.2583,79.0297 36.925,79.3631 53.5,81C 54.1258,81.7504 54.6258,82.5838 55,83.5C 55.4999,98.1629 55.6666,112.83 55.5,127.5C 188.833,127.5 322.167,127.5 455.5,127.5C 455.333,112.83 455.5,98.1629 456,83.5C 456.374,82.5838 456.874,81.7504 457.5,81C 474.075,79.3631 490.742,79.0297 507.5,80C 509.35,80.6897 510.684,81.8564 511.5,83.5 Z M 15.5,95.5 C 23.5,95.5 31.5,95.5 39.5,95.5C 39.8333,190.836 39.5,286.169 38.5,381.5C 31.4041,377.246 23.7374,374.579 15.5,373.5C 15.5,280.833 15.5,188.167 15.5,95.5 Z M 471.5,95.5 C 479.5,95.5 487.5,95.5 495.5,95.5C 495.5,188.167 495.5,280.833 495.5,373.5C 487.034,374.317 479.201,376.983 472,381.5C 471.5,286.167 471.333,190.834 471.5,95.5 Z M 55.5,143.5 C 188.833,143.5 322.167,143.5 455.5,143.5C 455.667,225.834 455.5,308.167 455,390.5C 445.159,393.242 435.326,393.075 425.5,390C 417.454,384.977 409.121,380.477 400.5,376.5C 399.334,358.176 399.167,339.842 400,321.5C 429.963,300.334 442.963,271.334 439,234.5C 428.911,187.246 399.744,161.913 351.5,158.5C 312.512,160.4 285.012,179.066 269,214.5C 257.146,249.394 263.146,280.727 287,308.5C 292.043,313.212 297.377,317.545 303,321.5C 303.833,344.507 303.666,367.507 302.5,390.5C 294.273,385.766 285.94,381.266 277.5,377C 262.828,372.334 248.162,372.334 233.5,377C 225,381.5 216.5,386 208,390.5C 207.333,367.5 207.333,344.5 208,321.5C 239.649,298.503 252.316,267.503 246,228.5C 236.179,191.012 212.346,168.178 174.5,160C 136.086,155.463 105.92,168.963 84,200.5C 69.2866,227.709 67.6199,255.709 79,284.5C 86.4794,299.642 97.146,311.975 111,321.5C 111.833,339.842 111.666,358.176 110.5,376.5C 101.291,381.535 91.9575,386.368 82.5,391C 73.8333,393 65.1667,393 56.5,391C 55.5016,308.571 55.1683,226.071 55.5,143.5 Z M 153.5,175.5 C 194.44,176.03 219.94,196.03 230,235.5C 233.405,260.622 226.071,281.955 208,299.5C 207.667,284.167 207.333,268.833 207,253.5C 198.346,225.079 179.18,212.579 149.5,216C 129.667,221.167 117.167,233.667 112,253.5C 111.667,268.833 111.333,284.167 111,299.5C 88.955,277.285 82.955,251.285 93,221.5C 104.808,195.179 124.975,179.845 153.5,175.5 Z M 345.5,175.5 C 386.44,176.03 411.94,196.03 422,235.5C 425.405,260.622 418.071,281.955 400,299.5C 399.667,284.167 399.333,268.833 399,253.5C 390.346,225.079 371.18,212.579 341.5,216C 321.667,221.167 309.167,233.667 304,253.5C 303.667,268.833 303.333,284.167 303,299.5C 280.955,277.285 274.955,251.285 285,221.5C 296.808,195.179 316.975,179.845 345.5,175.5 Z"/></g>
<g><path style="opacity:0.936" fill="#000000" d="M 511.5,481.5 C 511.5,484.167 511.5,486.833 511.5,489.5C 509.918,491.97 507.585,493.47 504.5,494C 498.675,494.149 493.008,495.149 487.5,497C 478.693,502.4 469.693,507.234 460.5,511.5C 447.833,511.5 435.167,511.5 422.5,511.5C 413.307,507.234 404.307,502.4 395.5,497C 384.833,493.667 374.167,493.667 363.5,497C 354.693,502.4 345.693,507.234 336.5,511.5C 323.833,511.5 311.167,511.5 298.5,511.5C 289.307,507.234 280.307,502.4 271.5,497C 260.833,493.667 250.167,493.667 239.5,497C 230.693,502.4 221.693,507.234 212.5,511.5C 199.5,511.5 186.5,511.5 173.5,511.5C 164.766,506.962 156.099,502.129 147.5,497C 136.833,493.667 126.167,493.667 115.5,497C 106.901,502.129 98.2339,506.962 89.5,511.5C 76.1667,511.5 62.8333,511.5 49.5,511.5C 40.7661,506.962 32.0994,502.129 23.5,497C 17.9917,495.149 12.325,494.149 6.5,494C 3.41501,493.47 1.08167,491.97 -0.5,489.5C -0.5,486.833 -0.5,484.167 -0.5,481.5C 0.316435,479.856 1.64977,478.69 3.5,478C 13.5483,476.647 23.2149,477.98 32.5,482C 39.3372,486.253 46.3372,490.253 53.5,494C 64.1667,497.333 74.8333,497.333 85.5,494C 93.8797,488.81 102.546,484.143 111.5,480C 124.825,476.695 138.158,476.695 151.5,480C 160.454,484.143 169.12,488.81 177.5,494C 187.07,496.883 196.737,497.217 206.5,495C 214.32,491.837 221.653,487.837 228.5,483C 247.31,475.401 265.977,475.734 284.5,484C 297.932,495.525 313.266,499.191 330.5,495C 338.32,491.837 345.653,487.837 352.5,483C 371.31,475.401 389.977,475.734 408.5,484C 422.973,496.368 439.306,499.701 457.5,494C 464.663,490.253 471.663,486.253 478.5,482C 487.769,477.899 497.436,476.565 507.5,478C 509.35,478.69 510.684,479.856 511.5,481.5 Z"/></g>
</svg>
