<?xml version="1.0" encoding="UTF-8"?>
<!DOCTYPE svg PUBLIC "-//W3C//DTD SVG 1.1//EN" "http://www.w3.org/Graphics/SVG/1.1/DTD/svg11.dtd">
<svg xmlns="http://www.w3.org/2000/svg" version="1.1" width="512px" height="512px" style="shape-rendering:geometricPrecision; text-rendering:geometricPrecision; image-rendering:optimizeQuality; fill-rule:evenodd; clip-rule:evenodd" xmlns:xlink="http://www.w3.org/1999/xlink">
<g><path style="opacity:1" fill="#000000" d="M 311.5,15.5 C 343.5,15.5 375.5,15.5 407.5,15.5C 407.5,95.5 407.5,175.5 407.5,255.5C 375.5,255.5 343.5,255.5 311.5,255.5C 311.5,175.5 311.5,95.5 311.5,15.5 Z M 335.5,47.5 C 340.833,47.5 346.167,47.5 351.5,47.5C 351.5,52.8333 351.5,58.1667 351.5,63.5C 346.167,63.5 340.833,63.5 335.5,63.5C 335.5,58.1667 335.5,52.8333 335.5,47.5 Z M 367.5,47.5 C 372.833,47.5 378.167,47.5 383.5,47.5C 383.5,52.8333 383.5,58.1667 383.5,63.5C 378.167,63.5 372.833,63.5 367.5,63.5C 367.5,58.1667 367.5,52.8333 367.5,47.5 Z M 335.5,87.5 C 340.833,87.5 346.167,87.5 351.5,87.5C 351.5,92.8333 351.5,98.1667 351.5,103.5C 346.167,103.5 340.833,103.5 335.5,103.5C 335.5,98.1667 335.5,92.8333 335.5,87.5 Z M 367.5,87.5 C 372.833,87.5 378.167,87.5 383.5,87.5C 383.5,92.8333 383.5,98.1667 383.5,103.5C 378.167,103.5 372.833,103.5 367.5,103.5C 367.5,98.1667 367.5,92.8333 367.5,87.5 Z M 335.5,127.5 C 340.833,127.5 346.167,127.5 351.5,127.5C 351.5,132.833 351.5,138.167 351.5,143.5C 346.167,143.5 340.833,143.5 335.5,143.5C 335.5,138.167 335.5,132.833 335.5,127.5 Z M 367.5,127.5 C 372.833,127.5 378.167,127.5 383.5,127.5C 383.5,132.833 383.5,138.167 383.5,143.5C 378.167,143.5 372.833,143.5 367.5,143.5C 367.5,138.167 367.5,132.833 367.5,127.5 Z"/></g>
<g><path style="opacity:0.996" fill="#000000" d="M 149.5,23.5 C 150.873,23.3433 152.207,23.51 153.5,24C 168.574,36.9521 183.741,49.7854 199,62.5C 199.5,126.832 199.667,191.166 199.5,255.5C 167.5,255.5 135.5,255.5 103.5,255.5C 103.333,191.166 103.5,126.832 104,62.5C 119.518,49.8373 134.684,36.8373 149.5,23.5 Z M 127.5,79.5 C 143.5,79.5 159.5,79.5 175.5,79.5C 175.5,84.8333 175.5,90.1667 175.5,95.5C 159.5,95.5 143.5,95.5 127.5,95.5C 127.5,90.1667 127.5,84.8333 127.5,79.5 Z M 127.5,119.5 C 143.5,119.5 159.5,119.5 175.5,119.5C 175.5,124.833 175.5,130.167 175.5,135.5C 159.5,135.5 143.5,135.5 127.5,135.5C 127.5,130.167 127.5,124.833 127.5,119.5 Z"/></g>
<g><path style="opacity:1" fill="#000000" d="M 215.5,103.5 C 242.167,103.5 268.833,103.5 295.5,103.5C 295.5,154.167 295.5,204.833 295.5,255.5C 268.833,255.5 242.167,255.5 215.5,255.5C 215.5,204.833 215.5,154.167 215.5,103.5 Z"/></g>
<g><path style="opacity:1" fill="#000000" d="M 23.5,135.5 C 44.8333,135.5 66.1667,135.5 87.5,135.5C 87.5,175.5 87.5,215.5 87.5,255.5C 66.1667,255.5 44.8333,255.5 23.5,255.5C 23.5,215.5 23.5,175.5 23.5,135.5 Z"/></g>
<g><path style="opacity:1" fill="#000000" d="M 423.5,143.5 C 444.833,143.5 466.167,143.5 487.5,143.5C 487.5,180.833 487.5,218.167 487.5,255.5C 466.167,255.5 444.833,255.5 423.5,255.5C 423.5,218.167 423.5,180.833 423.5,143.5 Z"/></g>
<g><path style="opacity:1" fill="#000000" d="M 7.5,271.5 C 172.833,271.5 338.167,271.5 503.5,271.5C 503.5,276.833 503.5,282.167 503.5,287.5C 338.167,287.5 172.833,287.5 7.5,287.5C 7.5,282.167 7.5,276.833 7.5,271.5 Z"/></g>
<g><path style="opacity:0.979" fill="#000000" d="M 18.5,303.5 C 46.8412,303.167 75.1745,303.5 103.5,304.5C 124.536,362.023 164.869,397.856 224.5,412C 283.066,421.7 332.9,405.2 374,362.5C 388.997,345.523 400.163,326.19 407.5,304.5C 435.825,303.5 464.159,303.167 492.5,303.5C 487.305,320.585 481.805,337.585 476,354.5C 474.13,357.018 471.63,358.352 468.5,358.5C 460.779,356.371 453.112,354.038 445.5,351.5C 443.803,351.899 442.137,352.399 440.5,353C 430.935,370.233 419.435,386.066 406,400.5C 405.245,403.303 405.578,405.97 407,408.5C 411.246,413.991 415.246,419.658 419,425.5C 420.297,430.117 419.13,433.95 415.5,437C 402.324,446.088 389.324,455.421 376.5,465C 373.833,465.667 371.167,465.667 368.5,465C 362.937,458.555 357.604,451.888 352.5,445C 350.966,444.077 349.299,443.577 347.5,443.5C 329.806,451.231 311.473,457.064 292.5,461C 289.601,462.627 288.101,465.127 288,468.5C 287.667,476.167 287.333,483.833 287,491.5C 286.626,492.416 286.126,493.25 285.5,494C 275.595,495.143 265.595,495.643 255.5,495.5C 245.405,495.643 235.405,495.143 225.5,494C 224.874,493.25 224.374,492.416 224,491.5C 223.667,483.833 223.333,476.167 223,468.5C 222.899,465.127 221.399,462.627 218.5,461C 199.527,457.064 181.194,451.231 163.5,443.5C 160.37,443.648 157.87,444.982 156,447.5C 152.234,453.928 147.734,459.762 142.5,465C 139.833,465.667 137.167,465.667 134.5,465C 121.676,455.421 108.676,446.088 95.5,437C 91.8697,433.95 90.703,430.117 92,425.5C 95.7541,419.658 99.7541,413.991 104,408.5C 105.422,405.97 105.755,403.303 105,400.5C 91.5654,386.066 80.0654,370.233 70.5,353C 68.8632,352.399 67.1966,351.899 65.5,351.5C 57.8876,354.038 50.2209,356.371 42.5,358.5C 39.3703,358.352 36.8703,357.018 35,354.5C 29.195,337.585 23.695,320.585 18.5,303.5 Z"/></g>
</svg>
